<svg width="851" height="298" viewBox="0 0 851 298" fill="none" xmlns="http://www.w3.org/2000/svg">
<path fill-rule="evenodd" clip-rule="evenodd" d="M48.3024 23.6103C44.2023 23.6103 41.2523 24.2853 39.4523 25.6354C37.6523 26.9853 36.7523 28.6603 36.7523 30.6604C36.7523 32.0604 37.4774 33.2603 38.9273 34.2604C40.3773 35.2605 42.1523 36.1605 44.2522 36.9604C46.3524 37.7603 48.5773 38.4605 50.9272 39.0603C53.2772 39.6604 55.3524 40.1604 57.1524 40.5604C62.1521 41.6605 66.9022 43.0104 71.4022 44.6103C75.9022 46.2104 79.8522 48.2604 83.2521 50.7603C86.6523 53.2605 89.3523 56.2853 91.3521 59.8354C93.3522 63.3852 94.3523 67.6605 94.3523 72.6602C94.3523 77.9604 93.3772 82.7354 91.4272 86.9854C89.4773 91.2354 86.4521 94.8354 82.3521 97.7854C78.2524 100.735 72.9774 103.01 66.5271 104.61C60.0772 106.21 52.3023 107.01 43.2023 107.01C36.3022 107.01 29.1022 106.46 21.6023 105.36C14.1024 104.26 6.90237 102.46 0.00227284 99.9604V69.2104H24.3023V79.7103C25.5025 80.1102 26.9022 80.4354 28.5024 80.6854C30.1022 80.9354 31.7024 81.1352 33.3023 81.2855C34.9024 81.4354 36.3523 81.5604 37.6523 81.6602C38.9523 81.7603 40.0022 81.8104 40.8022 81.8104C43.6022 81.8104 45.8524 81.5604 47.5523 81.0604C49.2522 80.5604 50.5522 79.9852 51.4522 79.3352C52.3522 78.6852 52.9274 77.9854 53.1774 77.2353C53.4274 76.4853 53.5524 75.8103 53.5524 75.2103C53.5524 73.5103 53.0773 72.1854 52.1271 71.2352C51.1773 70.2853 49.9022 69.5602 48.3024 69.0602C45.5023 68.2603 42.1024 67.4354 38.1022 66.5853C34.1022 65.7354 30.0022 64.7603 25.8024 63.6605C17.0022 61.3605 10.2274 57.7352 5.47737 52.7854C0.727373 47.8355 -1.64783 41.6103 -1.64783 34.1104C-1.64783 29.0103 -0.772727 24.3105 0.977373 20.0103C2.72717 15.7105 5.52727 12.0104 9.37727 8.9104C13.2273 5.8105 18.1522 3.4104 24.1523 1.7104C30.1524 0.0105003 37.4023 -0.8396 45.9023 -0.8396C48.9022 -0.8396 52.1524 -0.6897 55.6523 -0.3895C59.1522 -0.0895996 62.6272 0.3603 66.0773 0.9604C69.5273 1.5605 72.9272 2.3105 76.2772 3.2105C79.6272 4.1105 82.6523 5.1605 85.3523 6.3604V35.3103H60.7524V25.7105C58.7523 24.9103 56.5274 24.3604 54.0774 24.0605C51.6274 23.7603 49.7024 23.6103 48.3024 23.6103V23.6103ZM48.325 155.997C44.225 155.997 41.275 156.672 39.475 158.022C37.675 159.372 36.775 161.047 36.775 163.047C36.775 164.447 37.5001 165.647 38.95 166.647C40.3999 167.647 42.175 168.547 44.2749 169.347C46.3751 170.147 48.6 170.847 50.9499 171.447C53.2998 172.047 55.3751 172.547 57.1751 172.947C62.1748 174.047 66.9248 175.397 71.4248 176.997C75.9248 178.597 79.8749 180.647 83.2748 183.147C86.675 185.647 89.375 188.672 91.3748 192.222C93.3749 195.772 94.375 200.047 94.375 205.047C94.375 210.347 93.3999 215.122 91.4499 219.372C89.5 223.622 86.4748 227.222 82.3748 230.172C78.275 233.122 73.0001 235.397 66.5498 236.997C60.0999 238.597 52.325 239.397 43.2249 239.397C36.3248 239.397 29.1248 238.847 21.6249 237.747C14.125 236.647 6.92497 234.847 0.0248728 232.347V201.597H24.3249V212.097C25.5251 212.497 26.9249 212.822 28.525 213.072C30.1249 213.322 31.7251 213.522 33.3249 213.672C34.9251 213.822 36.375 213.947 37.675 214.047C38.975 214.147 40.0249 214.197 40.8248 214.197C43.6249 214.197 45.875 213.947 47.575 213.447C49.2749 212.947 50.5749 212.372 51.4749 211.722C52.3749 211.072 52.95 210.372 53.2001 209.622C53.4501 208.872 53.5751 208.197 53.5751 207.597C53.5751 205.897 53.1 204.572 52.1498 203.622C51.1999 202.672 49.9249 201.947 48.325 201.447C45.525 200.647 42.1251 199.822 38.1248 198.972C34.1249 198.122 30.0248 197.147 25.825 196.047C17.0249 193.747 10.2501 190.122 5.50007 185.172C0.749973 180.222 -1.62513 173.997 -1.62513 166.497C-1.62513 161.397 -0.750127 156.697 1.00007 152.397C2.74987 148.097 5.54987 144.397 9.39997 141.297C13.25 138.197 18.1749 135.797 24.175 134.097C30.1751 132.397 37.425 131.547 45.9249 131.547C48.9248 131.547 52.175 131.697 55.675 131.997C59.1749 132.297 62.6499 132.747 66.1 133.347C69.55 133.947 72.9499 134.697 76.2999 135.597C79.6498 136.497 82.675 137.547 85.375 138.747V167.697H60.7751V158.097C58.775 157.297 56.55 156.747 54.1001 156.447C51.6501 156.147 49.7251 155.997 48.325 155.997V155.997ZM128.274 237.147L128.274 214.797L139.975 214.797V155.547H128.275V172.122H104.125V133.197H211.975V172.122H187.825V155.547H175.975V214.797H187.823L187.824 237.147H128.274H128.274ZM285.774 165.597C285.774 162.297 284.874 159.797 283.074 158.097C281.274 156.397 278.725 155.547 275.425 155.547H268.525V177.447H273.925C277.525 177.447 280.4 176.547 282.549 174.747C284.7 172.947 285.774 169.897 285.774 165.597V165.597ZM268.524 198.292L268.525 214.797H277.525L277.524 237.143H222.474L222.475 214.797H232.825V155.547H222.475V133.197H285.774C293.575 133.197 299.975 134.172 304.975 136.122C309.974 138.072 313.924 140.622 316.825 143.772C319.724 146.922 321.725 150.472 322.824 154.422C323.925 158.372 324.474 162.297 324.474 166.197C324.474 168.497 324.175 170.897 323.574 173.397C322.975 175.897 322.049 178.322 320.8 180.672C319.55 183.022 317.949 185.172 315.999 187.122C314.049 189.072 311.675 190.697 308.875 191.997L321.074 214.798L333.781 214.798L333.782 237.144L303.273 237.149C299.6 237.149 293.17 235.668 290.334 229.272C285.349 218.031 278.943 202.955 276.925 198.297L268.524 198.293L268.524 198.292ZM342.924 237.147V214.797H354.024V155.547H342.924V133.197L446.497 133.199L446.499 172.124H422.124L422.127 155.549L390.474 155.547L390.474 172.122L413.449 172.122L413.448 196.517H390.475L390.474 214.797H422.124V196.516H446.5L446.502 237.147H342.925H342.924ZM459.324 237.147V214.797H470.424V155.547H459.324V133.197L562.961 133.199L562.96 172.122L538.524 172.125L538.524 155.549L506.874 155.547V172.097L529.911 172.112L529.912 196.517L506.874 196.484V214.797H538.524L538.523 196.517L562.961 196.516L562.96 237.143L459.324 237.147V237.147ZM596.123 237.144L596.124 214.797H607.824V155.547L596.123 155.548V172.123L571.973 172.123V133.198L679.824 133.197V172.123L655.673 172.123V155.548L643.824 155.547V214.797H655.673L655.674 237.143L596.123 237.144H596.123ZM192.302 56.6108V23.1609H182.402V0.8108H236.252V23.1609H226.052V104.761H190.202L167.702 69.9606L151.952 44.4607H151.652V82.4107H161.702V104.761H107.852V82.4107H118.352V23.1609H107.852V0.8108H157.202L174.752 28.5609L191.702 56.6108H192.302V56.6108ZM249.752 104.761V82.4107H260.852V23.1609H249.752V0.8108H353.395L353.395 39.7016L328.954 39.6923L328.951 23.1615L297.302 23.1609L297.295 39.705L320.269 39.7047V64.1275L297.295 64.1283L297.302 82.4107H328.952L328.945 64.1278L353.395 64.1201L353.402 104.761H249.752H249.752ZM438.611 75.6608H406.844L404.598 82.4107H412.502V104.761H362.402V82.4107H370.352L402.506 0.8108H442.975L475.127 82.4107L483.077 82.4112V104.761H432.976V82.4112L440.87 82.4109L438.611 75.6608V75.6608ZM417.302 44.6107L413.819 54.8108H431.635L428.102 44.9108L422.774 28.2607H422.702L417.302 44.6107V44.6107ZM575.701 41.3607L603.751 82.4107H612.001V104.761H556.201V82.4107H563.251L549.602 62.0108L540.602 69.0606V82.4107H549.6L549.601 104.761H493.951V82.4058L505.501 82.4107V23.162H493.95L493.949 0.8108H549.601L549.602 23.1612L540.602 23.1609V41.3108L563.251 23.0109H556.201L556.2 0.812L609.011 0.8106L609.007 23.1632L598.614 23.16L575.702 41.3607H575.701ZM621.751 104.761V82.4107H632.851V23.1609H621.751V0.8108L725.424 0.8114V39.7044H700.957V23.1615L669.301 23.1609L669.302 39.7044H692.313L692.312 64.128H669.302L669.301 82.4107L700.958 82.4112V64.1278H725.424L725.424 104.762L621.751 104.761L621.751 104.761ZM802.201 33.2104C802.201 29.9103 801.301 27.4105 799.501 25.7105C797.701 24.0103 795.151 23.1605 791.851 23.1605H784.951V45.0604H790.351C793.951 45.0604 796.826 44.1604 798.976 42.3604C801.126 40.5604 802.201 37.5103 802.201 33.2104ZM784.951 65.9103V82.4103H793.951V104.76H738.901V82.4103H749.251V23.1605H738.901V0.8104H802.201C810.001 0.8104 816.401 1.7856 821.401 3.7355C826.401 5.6855 830.351 8.2355 833.251 11.3854C836.151 14.5355 838.151 18.0853 839.251 22.0354C840.351 25.9855 840.901 29.9103 840.901 33.8103C840.901 36.1103 840.601 38.5104 840.001 41.0103C839.401 43.5104 838.476 45.9354 837.226 48.2854C835.976 50.6353 834.376 52.7854 832.426 54.7353C830.476 56.6853 828.101 58.3104 825.301 59.6103L837.5 82.4114L850.188 82.4108L850.189 104.762H819.715C814.293 104.762 808.98 101.969 806.776 96.8854L793.351 65.9103H784.951Z" fill="#FFFFFF"/>
<path fill-rule="evenodd" clip-rule="evenodd" d="M693.338 156.755C692.724 160.941 692.472 161.034 694.296 166.383C694.393 166.669 690.316 167.048 691.22 169.522C691.961 171.55 694.289 179.056 695.429 185.447C695.781 187.419 699.152 185.833 699.041 186.155C698.58 187.483 698.889 189.653 698.884 189.673C698.764 190.144 698.629 190.68 698.485 191.264L698.438 191.252C697.801 191.094 697.151 191.485 696.992 192.122L696.264 195.054C696.106 195.691 696.497 196.341 697.133 196.499L697.219 196.52L696.795 198.312C696.257 198.308 695.763 198.673 695.627 199.217L694.899 202.149C694.758 202.716 695.052 203.293 695.568 203.525L695.179 205.179C694.677 205.215 694.231 205.568 694.103 206.081L693.374 209.013C693.241 209.547 693.495 210.09 693.956 210.345L693.485 212.303C692.953 212.306 692.467 212.668 692.333 213.207L691.604 216.14C691.473 216.667 691.72 217.204 692.171 217.463C692.091 217.738 691.658 219.438 691.631 219.568C691.612 219.657 691.031 219.494 690.838 220.415C690.657 221.281 690.085 222.716 690.079 223.744C690.076 224.288 690.383 224.578 690.75 224.71C690.979 224.793 690.442 226.446 690.412 226.83C690.394 227.067 690.003 226.693 689.884 227.066C689.696 227.654 689.209 229.645 689.111 230.103C689.019 230.541 689.679 230.316 689.548 230.732C689.133 232.05 688.708 233.356 688.053 234.864C687.518 236.095 688.808 235.85 688.571 236.653C688.182 237.977 687.244 239.389 686.199 241.362C679.852 253.35 679.768 252.154 675.326 257.909C674.045 259.568 675.382 262.417 677.328 265.621C677.617 266.098 676.679 266.03 677.115 267.281C678.448 271.104 681.318 274.833 685.664 275.442C689.923 276.038 697.005 271.093 700.16 268.874C705.556 265.077 709.2 261.592 716.422 254.39C719.099 251.72 724.03 246.485 729.382 240.747C729.239 241.416 729.136 242.038 729.082 242.596C728.983 243.616 728.608 243.766 728.273 244.596C727.049 247.627 725.71 251.999 724.109 255.569C721.782 260.757 729.826 265.554 733.404 267.273C743.612 272.176 759.322 276.429 765.81 278.387C777.088 281.79 801.437 290.004 810.712 292.608C820.251 295.287 824.994 296.512 831.37 297.169C835.098 297.554 843.448 298.385 846.775 295.858C850.17 293.28 850.834 288.757 850.149 284.884C849.925 283.617 849.162 284.12 849.181 283.578C849.309 279.938 849.091 276.89 847.218 276.091C840.722 273.32 841.218 274.373 830.149 267.224C828.327 266.047 826.862 265.295 825.904 264.357C825.322 263.789 826.532 263.385 825.495 262.595C824.224 261.627 823.244 260.722 822.267 259.802C821.958 259.511 822.624 259.389 822.338 259.062C822.038 258.719 820.681 257.262 820.242 256.853C819.964 256.594 819.81 257.096 819.682 256.904C819.475 256.593 818.235 255.446 818.39 255.267C818.638 254.981 818.761 254.59 818.5 254.13C818.008 253.262 816.828 252.329 816.278 251.669C815.813 251.112 815.434 251.516 815.203 251.327C815.103 251.245 813.945 249.993 813.747 249.798C814.006 249.365 813.961 248.793 813.599 248.408L811.59 246.268C811.221 245.875 810.636 245.798 810.184 246.048L808.856 244.611C809.125 244.177 809.083 243.596 808.717 243.207L806.708 241.067C806.356 240.693 805.81 240.605 805.368 240.813L804.253 239.595C804.58 239.155 804.556 238.525 804.167 238.111L802.159 235.971C801.785 235.575 801.194 235.5 800.739 235.759L799.53 234.441L799.592 234.383C800.057 233.947 800.08 233.21 799.644 232.745L797.635 230.605C797.198 230.141 796.461 230.118 795.997 230.554L795.963 230.587C795.563 230.16 795.194 229.77 794.869 229.427C794.855 229.413 794.087 227.427 793.067 226.519C792.819 226.299 796.431 226.043 795.792 224.205C793.727 218.247 792.137 210.779 791.804 208.709C791.396 206.182 787.76 207.796 787.707 207.508C786.714 202.108 786.456 202.149 783.95 198.891C781.877 196.198 779.27 195.126 774.939 197.018L773.608 192.05C776.058 188.354 779.98 180.839 775.587 177.575C773.016 175.665 770.339 173.216 768.031 171.234L746.019 89.087C745.557 85.9822 744.913 83.4562 744.122 82.004L744.005 81.5695C743.98 81.3657 743.912 81.1698 743.806 80.9958C744.579 79.8877 746.29 77.2863 747.379 72.0661C748.469 66.8458 747.455 62.0785 743.811 61.9297C740.167 61.7808 738.605 66.7763 739.047 71.8815C739.489 76.9867 740.78 79.496 741.173 80.4396C740.107 80.2035 738.595 79.7871 734.974 80.0153C731.352 80.2434 727.79 82.1268 728.223 85.2389C728.752 87.5373 731.173 88.6198 735.245 87.4463C732.277 90.5774 728.903 95.616 728.033 100.119C727.983 100.379 728.31 100.671 728.267 100.822C728.061 101.538 727.553 102.622 727.826 102.75C728.079 102.868 728.258 102.243 728.723 100.974C728.767 100.855 729.186 100.98 729.429 100.549C731.205 97.1297 736.253 88.2913 739.293 86.6699L715.869 151.029C713.701 151.516 711.336 151.892 708.748 152.125C707.412 152.245 705.188 150.325 701.626 150.464C695.925 150.686 693.883 153.035 693.338 156.755V156.755ZM745.433 72.4932C744.398 77.7549 742.739 80.1026 742.739 80.1026C742.739 80.1026 741.635 77.4491 741.256 72.0788C740.878 66.7086 742.119 64.3887 743.806 64.4068C745.493 64.425 746.468 67.2316 745.433 72.4932ZM740.876 82.3229C740.863 82.4103 739.15 84.1799 737.353 84.8455C733.714 86.1931 730.737 86.5766 730.466 84.8268C730.195 83.077 732.903 81.8799 736.786 81.741C738.352 81.6849 740.828 82.1191 740.876 82.3229ZM772.398 198.483C770.477 200.003 769.655 201.848 768.69 202.279C767.008 203.032 765.389 203.663 763.832 204.189C766.494 201.229 769.153 198.098 771.471 195.026L772.398 198.483ZM764.198 167.88C760.774 163.443 751.775 156.711 748.721 155.445C742.58 152.899 737.759 148.641 737.406 147.918C736.552 146.169 736.378 144.294 734.859 143.855C733.09 143.343 732.522 145.213 731.831 144.784C730.549 143.988 729.048 145.906 725.398 147.709C723.562 148.617 721.511 149.447 719.206 150.149L742.603 85.8334C744.564 94.3294 744.297 102.295 744.615 110.493C744.647 111.299 745.286 111.07 745.303 111.354C745.377 112.622 745.292 113.255 745.593 113.216C745.872 113.179 745.763 112.068 745.787 111.339C745.792 111.193 746.343 111.13 746.393 110.598C746.653 108.238 746.799 105.686 746.841 103.103L764.198 167.88V167.88Z" fill="#FFFFFF"/>
</svg>
