<svg width="802" height="332" viewBox="0 0 802 332" fill="none" xmlns="http://www.w3.org/2000/svg">
<path fill-rule="evenodd" clip-rule="evenodd" d="M41.2778 0.763702H760.723C782.91 0.763702 801.062 18.9165 801.062 41.103V200.462C801.062 222.648 782.91 240.801 760.723 240.801H41.2778C19.0909 240.801 0.938477 222.648 0.938477 200.462V41.103C0.938477 18.9165 19.0909 0.763702 41.2778 0.763702ZM68.9659 12.7657H749.038C771.05 12.7657 789.061 30.7762 789.061 52.7887V172.774C789.061 194.786 771.05 212.797 749.038 212.797H68.9659C46.9531 212.797 28.9428 194.786 28.9428 172.774V52.7887C28.9428 30.7762 46.9531 12.7657 68.9659 12.7657Z" fill="black"/>
<path fill-rule="evenodd" clip-rule="evenodd" d="M81.5286 309.358C84.0128 310.206 86.7042 310.631 89.6025 310.631H175.775C177.328 310.631 178.673 311.075 179.812 311.964C180.95 312.853 181.52 313.944 181.52 315.237C181.52 316.449 180.95 317.479 179.812 318.327C178.673 319.176 177.328 319.6 175.775 319.6H81.0629C78.9927 319.6 77.233 320.166 75.7839 321.297C74.3347 322.428 73.6101 323.802 73.6101 325.418C73.6101 327.034 74.3347 328.408 75.7839 329.539C77.233 330.671 78.9927 331.236 81.0629 331.236H175.154C178.052 331.236 180.769 330.832 183.305 330.024C185.841 329.216 188.041 328.085 189.904 326.63C191.767 325.176 193.242 323.479 194.329 321.539C195.416 319.6 195.959 317.499 195.959 315.237C195.959 312.974 195.416 310.853 194.329 308.873C193.242 306.893 191.767 305.176 189.904 303.721C188.041 302.267 185.841 301.115 183.305 300.267C180.769 299.419 178.052 298.994 175.154 298.994H89.2919C87.7392 298.994 86.3677 298.55 85.1773 297.661C83.987 296.772 83.3918 295.722 83.3918 294.509C83.3918 293.216 83.987 292.146 85.1773 291.297C86.3677 290.449 87.7392 290.025 89.2919 290.025H183.849C185.919 290.025 187.679 289.459 189.128 288.328C190.577 287.196 191.301 285.823 191.301 284.207C191.301 282.59 190.577 281.217 189.128 280.085C187.679 278.954 185.919 278.388 183.849 278.388H89.6025C86.7042 278.388 84.0128 278.813 81.5286 279.661C79.0443 280.51 76.8707 281.661 75.0076 283.116C73.1443 284.57 71.6693 286.267 70.5825 288.207C69.4956 290.146 68.9521 292.247 68.9521 294.509C68.9521 296.772 69.4956 298.873 70.5825 300.812C71.6693 302.752 73.1443 304.449 75.0076 305.903C76.8707 307.358 79.0443 308.509 81.5286 309.358ZM213.66 280.085C212.211 281.217 211.486 282.59 211.486 284.207C211.486 285.823 212.211 287.196 213.66 288.328C215.109 289.459 216.868 290.025 218.939 290.025H312.564C314.116 290.025 315.488 290.469 316.678 291.358C317.869 292.247 318.464 293.297 318.464 294.509C318.464 295.802 317.869 296.873 316.678 297.721C315.488 298.57 314.116 298.994 312.564 298.994H230.118C227.427 298.994 224.968 299.378 222.743 300.146C220.517 300.913 218.551 301.964 216.843 303.297C215.135 304.631 213.815 306.206 212.883 308.024C211.952 309.843 211.486 311.762 211.486 313.782V325.418C211.486 327.034 212.211 328.408 213.66 329.539C215.109 330.671 216.868 331.236 218.939 331.236C220.905 331.236 222.639 330.671 224.14 329.539C225.641 328.408 226.391 327.034 226.391 325.418V315.115C226.391 313.903 226.857 312.893 227.789 312.085C228.72 311.277 229.859 310.792 231.205 310.631H311.943C314.841 310.631 317.558 310.206 320.094 309.358C322.63 308.509 324.856 307.358 326.771 305.903C328.686 304.449 330.186 302.752 331.273 300.812C332.36 298.873 332.904 296.772 332.904 294.509C332.904 292.247 332.36 290.146 331.273 288.207C330.186 286.267 328.686 284.57 326.771 283.116C324.856 281.661 322.63 280.51 320.094 279.661C317.558 278.813 314.841 278.388 311.943 278.388H218.939C216.868 278.388 215.109 278.954 213.66 280.085ZM474.816 304.812C474.816 307.883 474.169 310.974 472.876 314.085C471.582 317.196 469.693 320.024 467.208 322.57C464.724 325.115 461.722 327.196 458.203 328.812C454.684 330.428 450.698 331.236 446.247 331.236H375.446C371.202 331.075 367.424 330.166 364.112 328.509C360.8 326.852 357.979 324.772 355.65 322.267C353.321 319.762 351.536 316.974 350.293 313.903C349.051 310.832 348.43 307.802 348.43 304.812C348.43 301.742 349.077 298.651 350.371 295.54C351.665 292.429 353.554 289.6 356.038 287.055C358.522 284.51 361.524 282.429 365.044 280.813C368.563 279.196 372.548 278.388 376.999 278.388H447.8C452.044 278.55 455.822 279.459 459.135 281.116C462.447 282.772 465.268 284.853 467.597 287.358C469.926 289.863 471.711 292.651 472.953 295.722C474.195 298.792 474.816 301.823 474.816 304.812ZM598.718 315.055C595.82 313.479 592.973 312.004 590.179 310.631H590.8C593.698 310.631 596.415 310.206 598.951 309.358C601.487 308.509 603.713 307.358 605.628 305.903C607.542 304.449 609.043 302.752 610.13 300.812C611.217 298.873 611.761 296.772 611.761 294.509C611.761 292.247 611.217 290.146 610.13 288.207C609.043 286.267 607.542 284.57 605.628 283.116C603.713 281.661 601.487 280.51 598.951 279.661C596.415 278.813 593.698 278.388 590.8 278.388H497.796C495.725 278.388 493.966 278.954 492.517 280.085C491.067 281.217 490.343 282.59 490.343 284.207C490.343 285.823 491.067 287.196 492.517 288.328C493.966 289.459 495.725 290.025 497.796 290.025H591.421C592.973 290.025 594.345 290.469 595.535 291.358C596.726 292.247 597.321 293.297 597.321 294.509C597.321 295.802 596.726 296.873 595.535 297.721C594.345 298.57 592.973 298.994 591.421 298.994H509.13C506.439 298.994 503.954 299.378 501.677 300.146C499.4 300.913 497.433 301.964 495.777 303.297C494.121 304.631 492.801 306.206 491.818 308.024C490.835 309.843 490.343 311.762 490.343 313.782V325.418C490.343 327.034 491.067 328.408 492.517 329.539C493.966 330.671 495.725 331.236 497.796 331.236C499.762 331.236 501.496 330.671 502.997 329.539C504.498 328.408 505.248 327.034 505.248 325.418V315.115C505.248 313.903 505.714 312.893 506.646 312.085C507.577 311.277 508.716 310.792 510.062 310.631H540.959C546.549 310.631 551.932 311.156 557.107 312.206C562.283 313.257 567.277 314.671 572.09 316.449C576.903 318.226 581.536 320.247 585.986 322.509C590.437 324.772 594.785 327.115 599.029 329.539C600.788 330.671 602.548 331.236 604.308 331.236C606.378 331.236 608.138 330.671 609.587 329.539C611.036 328.408 611.761 327.034 611.761 325.418C611.761 324.287 611.347 323.297 610.518 322.448C609.69 321.6 608.707 320.853 607.568 320.206C604.567 318.347 601.617 316.63 598.718 315.055ZM741.563 278.388C743.633 278.388 745.392 278.954 746.842 280.085C748.291 281.217 749.015 282.59 749.015 284.207C749.015 285.823 748.291 287.196 746.842 288.328C745.392 289.459 743.633 290.025 741.563 290.025H695.604V325.418C695.604 327.034 694.879 328.408 693.43 329.539C691.981 330.671 690.221 331.236 688.151 331.236C686.081 331.236 684.321 330.671 682.872 329.539C681.423 328.408 680.698 327.034 680.698 325.418V290.025H634.119C632.256 289.863 630.651 289.237 629.306 288.146C627.96 287.055 627.287 285.742 627.287 284.207C627.287 282.59 628.012 281.217 629.461 280.085C630.91 278.954 632.67 278.388 634.74 278.388H741.563ZM442.987 319.6C446.507 319.6 449.405 319.095 451.682 318.085C453.959 317.075 455.745 315.842 457.039 314.388C458.333 312.934 459.212 311.337 459.678 309.6C460.144 307.863 460.377 306.267 460.377 304.812C460.377 303.358 460.144 301.762 459.678 300.025C459.212 298.287 458.333 296.691 457.039 295.237C455.745 293.782 453.959 292.55 451.682 291.54C449.405 290.53 446.507 290.025 442.987 290.025H380.26C376.637 290.025 373.713 290.53 371.487 291.54C369.262 292.55 367.502 293.782 366.208 295.237C364.915 296.691 364.035 298.287 363.569 300.025C363.103 301.762 362.87 303.358 362.87 304.812C362.87 306.267 363.103 307.863 363.569 309.6C364.035 311.337 364.915 312.934 366.208 314.388C367.502 315.842 369.262 317.075 371.487 318.085C373.713 319.095 376.637 319.6 380.26 319.6H442.987Z" fill="black"/>
<path fill-rule="evenodd" clip-rule="evenodd" d="M72.6306 58.9614C70.1682 61.4237 68.9375 64.414 68.9375 67.9314C68.9375 71.4488 70.1682 74.4391 72.6306 76.9015C75.0929 79.3638 78.0832 80.5945 81.6006 80.5945H240.684C243.323 80.5945 245.653 81.5622 247.675 83.4966C249.698 85.431 250.71 87.7176 250.71 90.3557C250.71 93.1703 249.698 95.5002 247.675 97.3472C245.653 99.1942 243.323 100.118 240.684 100.118H100.596C96.0233 100.118 91.8455 100.953 88.0642 102.623C84.2828 104.295 80.9411 106.581 78.0391 109.483C75.137 112.385 72.8945 115.814 71.3115 119.772C69.7285 123.729 68.9375 127.906 68.9375 132.303V157.63C68.9375 161.148 70.1682 164.138 72.6306 166.6C75.0929 169.063 78.0832 170.293 81.6006 170.293C84.9423 170.293 87.8885 169.063 90.4391 166.6C92.9889 164.138 94.2637 161.148 94.2637 157.63V135.205C94.2637 132.567 95.0557 130.369 96.6387 128.61C98.2217 126.851 100.156 125.796 102.443 125.444H239.629C244.554 125.444 249.17 124.52 253.48 122.674C257.789 120.827 261.57 118.321 264.824 115.155C268.078 111.99 270.628 108.296 272.475 104.075C274.322 99.8537 275.245 95.2804 275.245 90.3557C275.245 85.431 274.322 80.8586 272.475 76.6375C270.628 72.4164 268.078 68.7225 264.824 65.5573C261.57 62.3913 257.789 59.8849 253.48 58.0379C249.17 56.1918 244.554 55.2683 239.629 55.2683H81.6006C78.0832 55.2683 75.0929 56.499 72.6306 58.9614ZM485.773 135.074C480.848 131.644 476.012 128.434 471.263 125.444H472.318C477.243 125.444 481.859 124.52 486.169 122.674C490.478 120.827 494.259 118.321 497.513 115.155C500.767 111.99 503.317 108.296 505.164 104.075C507.011 99.8537 507.934 95.2804 507.934 90.3557C507.934 85.431 507.011 80.8586 505.164 76.6375C503.317 72.4164 500.767 68.7225 497.513 65.5573C494.259 62.3913 490.478 59.8849 486.169 58.0379C481.859 56.1918 477.243 55.2683 472.318 55.2683H314.29C310.772 55.2683 307.782 56.499 305.32 58.9614C302.857 61.4237 301.627 64.414 301.627 67.9314C301.627 71.4488 302.857 74.4391 305.32 76.9015C307.782 79.3638 310.772 80.5945 314.29 80.5945H473.373C476.012 80.5945 478.342 81.5622 480.365 83.4966C482.387 85.431 483.399 87.7176 483.399 90.3557C483.399 93.1703 482.387 95.5002 480.365 97.3472C478.342 99.1942 476.012 100.118 473.373 100.118H333.549C328.975 100.118 324.754 100.953 320.886 102.623C317.016 104.295 313.674 106.581 310.861 109.483C308.046 112.385 305.803 115.814 304.133 119.772C302.462 123.729 301.627 127.906 301.627 132.303V157.63C301.627 161.148 302.857 164.138 305.32 166.6C307.782 169.063 310.772 170.293 314.29 170.293C317.631 170.293 320.578 169.063 323.128 166.6C325.678 164.138 326.953 161.148 326.953 157.63V135.205C326.953 132.567 327.745 130.369 329.328 128.61C330.911 126.851 332.845 125.796 335.132 125.444H387.632C397.129 125.444 406.275 126.587 415.069 128.874C423.863 131.161 432.349 134.238 440.528 138.107C448.706 141.977 456.577 146.374 464.14 151.298C471.703 156.223 479.09 161.323 486.3 166.6C489.291 169.063 492.281 170.293 495.27 170.293C498.789 170.293 501.778 169.063 504.24 166.6C506.703 164.138 507.934 161.148 507.934 157.63C507.934 155.168 507.231 153.014 505.823 151.167C504.416 149.32 502.746 147.693 500.81 146.286C495.71 142.241 490.698 138.504 485.773 135.074ZM749.066 112.781C749.066 119.464 747.966 126.192 745.768 132.963C743.569 139.734 740.359 145.891 736.138 151.431C731.917 156.971 726.816 161.5 720.836 165.017C714.857 168.535 708.085 170.293 700.522 170.293H580.22C573.01 169.942 566.589 167.963 560.962 164.358C555.333 160.752 550.54 156.223 546.583 150.771C542.626 145.319 539.592 139.25 537.482 132.567C535.371 125.884 534.316 119.289 534.316 112.781C534.316 106.097 535.415 99.3699 537.613 92.5982C539.812 85.8274 543.022 79.6711 547.243 74.131C551.464 68.5909 556.564 64.0617 562.544 60.5443C568.525 57.0269 575.295 55.2683 582.858 55.2683H703.16C710.372 55.6197 716.791 57.5982 722.419 61.2039C728.048 64.8095 732.84 69.3387 736.798 74.7905C740.755 80.2432 743.789 86.3112 745.9 92.9946C748.01 99.678 749.066 106.273 749.066 112.781ZM694.982 145.373C700.962 145.373 705.886 144.273 709.756 142.075C713.626 139.876 716.659 137.194 718.858 134.029C721.056 130.862 722.552 127.388 723.343 123.607C724.134 119.826 724.53 116.352 724.53 113.186C724.53 110.02 724.134 106.547 723.343 102.766C722.552 98.9843 721.056 95.5102 718.858 92.3442C716.659 89.179 713.626 86.4969 709.756 84.2976C705.886 82.0992 700.962 81 694.982 81H588.399C582.242 81 577.274 82.0992 573.492 84.2976C569.711 86.4969 566.722 89.179 564.523 92.3442C562.324 95.5102 560.829 98.9843 560.038 102.766C559.246 106.547 558.851 110.02 558.851 113.186C558.851 116.352 559.246 119.826 560.038 123.607C560.829 127.388 562.324 130.862 564.523 134.029C566.722 137.194 569.711 139.876 573.492 142.075C577.274 144.273 582.242 145.373 588.399 145.373H694.982Z" fill="black"/>
</svg>
